# xmcd
#
# Track frame offsets:
#	150
#	15503
#	31494
#	48461
#	64653
#	79573
#	95070
#	111947
#	124629
#	140240
#	155492
#	171057
#	185206
#	199819
#	212296
#	225486
#	239973
#	255741
#	270098
#	286914
#	300190
#	313057
#	327424
#	342148
#
# Disc length: 4746
#
# Revision: 1
# Processed by: cddbd v1.5.1PL0 Copyright (c) Steve Scherf et al.
# Submitted via: audiograbber 1.81.01
# Normalized: r0:DSETVAR1
#
DISCID=55128818
DTITLE=Various Artist - New Orleans Blues
DYEAR=2002
DGENRE=Blues
TTITLE0=Rabbit Brown - James Alley Blues
TTITLE1=Rabbit Brown - I'm Not Jealous
TTITLE2=Genevieve Davis - Haven't Got A Dollar
TTITLE3=N. O. Willie Jackson - Old New Orleans Blues
TTITLE4=Kid Stormy Weather - Short Hair Blues
TTITLE5=Kid Stormy Weather - Bread And Water Blues
TTITLE6=Lizzie Miles - I Hate A Man Like You
TTITLE7=Little Brother Montgomery - Crescent City Blues
TTITLE8=King Solomon Hill - Whoopee Blues
TTITLE9=Blind Leroy Garnet - Louisiana Glide
TTITLE10=Charley Taylor - Louisiana Bound
TTITLE11=Ramblin' Thomas - Ground Hog Blues
TTITLE12=Champion Jack Dupree - Cabbage Greens #1
TTITLE13=Buddy Woods - Don't Sell It (Don't Give It Away)
TTITLE14=Blind Joe Reynolds - Third Street Woman Blues
TTITLE15=Sam Collins - New Salty Dog
TTITLE16=Shreveport Home Wreckers - Fence Breaking Blues
TTITLE17=Jelly Roll Morton - Mamie's Blues
TTITLE18=Ann Turner - Deceived Blues
TTITLE19=Champion Jack Dupree - Junker's Blues
TTITLE20=Kitty Gray - My Baby's Ways
TTITLE21=Little Brother Montgomery - Louisiana Blues
TTITLE22=Creole George - Graveyard Love Blues
TTITLE23=Hot Rod Happy - Worried Blues
EXTD=Walle upped this
EXTT0=
EXTT1=
EXTT2=
EXTT3=
EXTT4=
EXTT5=
EXTT6=
EXTT7=
EXTT8=
EXTT9=
EXTT10=
EXTT11=
EXTT12=
EXTT13=
EXTT14=
EXTT15=
EXTT16=
EXTT17=
EXTT18=
EXTT19=
EXTT20=
EXTT21=
EXTT22=
EXTT23=
PLAYORDER=
